ISO-10303-21;
HEADER;
/* Generated by software containing ST-Developer
 * from STEP Tools, Inc. (www.steptools.com) 
 */
/* OPTION: using custom renumber hook */

FILE_DESCRIPTION(
/* description */ ('STEP AP242 Edition 2',
'CAx-IF Rec.Pracs.---Representation and Presentation of Product Manufa
cturing Information (PMI)---4.0---2014-10-13',
'CAx-IF Rec.Pracs.---3D Tessellated Geometry---0.4---2014-09-14','2;1',
'CAx-IF Rec.Pracs.---User Defined Attributes---1.5---2016-08-15'),
/* implementation_level */ '2;1');

FILE_NAME(
/* name */ 'Part Studio 1',
/* time_stamp */ '2026-04-09T21:09:33Z',
/* author */ (''),
/* organization */ (''),
/* preprocessor_version */ 'ST-DEVELOPER v20',
/* originating_system */ 'ONSHAPE BY PTC INC, 1.213',
/* authorisation */ '  ');

FILE_SCHEMA (('AP242_MANAGED_MODEL_BASED_3D_ENGINEERING_MIM_LF { 1 0 10303 442 3 1 4 }'));
ENDSEC;

DATA;
#10=SHAPE_REPRESENTATION_RELATIONSHIP('','',#651,#11);
#11=ADVANCED_BREP_SHAPE_REPRESENTATION('',(#649),#1070);
#12=TOROIDAL_SURFACE('',#673,0.01025,0.0005);
#13=TOROIDAL_SURFACE('',#674,0.01025,0.0005);
#14=CYLINDRICAL_SURFACE('',#664,0.01075);
#15=CYLINDRICAL_SURFACE('',#675,0.009);
#16=CYLINDRICAL_SURFACE('',#677,0.009);
#17=CYLINDRICAL_SURFACE('',#686,0.0005);
#18=CYLINDRICAL_SURFACE('',#687,0.0005);
#19=CYLINDRICAL_SURFACE('',#688,0.00125);
#20=CYLINDRICAL_SURFACE('',#707,0.0005);
#21=CYLINDRICAL_SURFACE('',#708,0.0005);
#22=CIRCLE('',#655,0.00125);
#23=CIRCLE('',#657,0.0005);
#24=CIRCLE('',#658,0.0005);
#25=CIRCLE('',#660,0.00125);
#26=CIRCLE('',#661,0.0005);
#27=CIRCLE('',#662,0.009);
#28=CIRCLE('',#663,0.0005);
#29=CIRCLE('',#665,0.01075);
#30=CIRCLE('',#666,0.01075);
#31=CIRCLE('',#668,0.009);
#32=CIRCLE('',#669,0.01025);
#33=CIRCLE('',#671,0.009);
#34=CIRCLE('',#672,0.01025);
#35=CIRCLE('',#676,0.009);
#36=CIRCLE('',#678,0.009);
#37=CIRCLE('',#684,0.0005);
#38=CIRCLE('',#691,0.0005);
#39=CIRCLE('',#693,0.0005);
#40=CIRCLE('',#696,0.0005);
#41=ORIENTED_EDGE('',*,*,#209,.F.);
#42=ORIENTED_EDGE('',*,*,#210,.T.);
#43=ORIENTED_EDGE('',*,*,#211,.T.);
#44=ORIENTED_EDGE('',*,*,#212,.F.);
#45=ORIENTED_EDGE('',*,*,#213,.T.);
#46=ORIENTED_EDGE('',*,*,#214,.F.);
#47=ORIENTED_EDGE('',*,*,#215,.T.);
#48=ORIENTED_EDGE('',*,*,#216,.F.);
#49=ORIENTED_EDGE('',*,*,#217,.F.);
#50=ORIENTED_EDGE('',*,*,#218,.T.);
#51=ORIENTED_EDGE('',*,*,#219,.T.);
#52=ORIENTED_EDGE('',*,*,#220,.T.);
#53=ORIENTED_EDGE('',*,*,#211,.F.);
#54=ORIENTED_EDGE('',*,*,#221,.T.);
#55=ORIENTED_EDGE('',*,*,#222,.T.);
#56=ORIENTED_EDGE('',*,*,#223,.T.);
#57=ORIENTED_EDGE('',*,*,#224,.T.);
#58=ORIENTED_EDGE('',*,*,#225,.F.);
#59=ORIENTED_EDGE('',*,*,#226,.T.);
#60=ORIENTED_EDGE('',*,*,#227,.F.);
#61=ORIENTED_EDGE('',*,*,#228,.F.);
#62=ORIENTED_EDGE('',*,*,#229,.T.);
#63=ORIENTED_EDGE('',*,*,#230,.T.);
#64=ORIENTED_EDGE('',*,*,#231,.T.);
#65=ORIENTED_EDGE('',*,*,#232,.F.);
#66=ORIENTED_EDGE('',*,*,#233,.T.);
#67=ORIENTED_EDGE('',*,*,#234,.T.);
#68=ORIENTED_EDGE('',*,*,#235,.T.);
#69=ORIENTED_EDGE('',*,*,#236,.F.);
#70=ORIENTED_EDGE('',*,*,#237,.T.);
#71=ORIENTED_EDGE('',*,*,#238,.F.);
#72=ORIENTED_EDGE('',*,*,#239,.T.);
#73=ORIENTED_EDGE('',*,*,#239,.F.);
#74=ORIENTED_EDGE('',*,*,#234,.F.);
#75=ORIENTED_EDGE('',*,*,#235,.F.);
#76=ORIENTED_EDGE('',*,*,#237,.F.);
#77=ORIENTED_EDGE('',*,*,#231,.F.);
#78=ORIENTED_EDGE('',*,*,#240,.T.);
#79=ORIENTED_EDGE('',*,*,#241,.T.);
#80=ORIENTED_EDGE('',*,*,#242,.F.);
#81=ORIENTED_EDGE('',*,*,#238,.T.);
#82=ORIENTED_EDGE('',*,*,#243,.F.);
#83=ORIENTED_EDGE('',*,*,#236,.T.);
#84=ORIENTED_EDGE('',*,*,#243,.T.);
#85=ORIENTED_EDGE('',*,*,#244,.F.);
#86=ORIENTED_EDGE('',*,*,#245,.T.);
#87=ORIENTED_EDGE('',*,*,#241,.F.);
#88=ORIENTED_EDGE('',*,*,#246,.F.);
#89=ORIENTED_EDGE('',*,*,#230,.F.);
#90=ORIENTED_EDGE('',*,*,#247,.T.);
#91=ORIENTED_EDGE('',*,*,#225,.T.);
#92=ORIENTED_EDGE('',*,*,#248,.T.);
#93=ORIENTED_EDGE('',*,*,#246,.T.);
#94=ORIENTED_EDGE('',*,*,#240,.F.);
#95=ORIENTED_EDGE('',*,*,#223,.F.);
#96=ORIENTED_EDGE('',*,*,#249,.T.);
#97=ORIENTED_EDGE('',*,*,#232,.T.);
#98=ORIENTED_EDGE('',*,*,#242,.T.);
#99=ORIENTED_EDGE('',*,*,#245,.F.);
#100=ORIENTED_EDGE('',*,*,#250,.F.);
#101=ORIENTED_EDGE('',*,*,#251,.T.);
#102=ORIENTED_EDGE('',*,*,#252,.F.);
#103=ORIENTED_EDGE('',*,*,#253,.T.);
#104=ORIENTED_EDGE('',*,*,#254,.T.);
#105=ORIENTED_EDGE('',*,*,#218,.F.);
#106=ORIENTED_EDGE('',*,*,#255,.T.);
#107=ORIENTED_EDGE('',*,*,#228,.T.);
#108=ORIENTED_EDGE('',*,*,#256,.T.);
#109=ORIENTED_EDGE('',*,*,#221,.F.);
#110=ORIENTED_EDGE('',*,*,#210,.F.);
#111=ORIENTED_EDGE('',*,*,#257,.F.);
#112=ORIENTED_EDGE('',*,*,#258,.T.);
#113=ORIENTED_EDGE('',*,*,#244,.T.);
#114=ORIENTED_EDGE('',*,*,#248,.F.);
#115=ORIENTED_EDGE('',*,*,#224,.F.);
#116=ORIENTED_EDGE('',*,*,#250,.T.);
#117=ORIENTED_EDGE('',*,*,#222,.F.);
#118=ORIENTED_EDGE('',*,*,#256,.F.);
#119=ORIENTED_EDGE('',*,*,#233,.F.);
#120=ORIENTED_EDGE('',*,*,#249,.F.);
#121=ORIENTED_EDGE('',*,*,#226,.F.);
#122=ORIENTED_EDGE('',*,*,#247,.F.);
#123=ORIENTED_EDGE('',*,*,#229,.F.);
#124=ORIENTED_EDGE('',*,*,#255,.F.);
#125=ORIENTED_EDGE('',*,*,#213,.F.);
#126=ORIENTED_EDGE('',*,*,#227,.T.);
#127=ORIENTED_EDGE('',*,*,#259,.T.);
#128=ORIENTED_EDGE('',*,*,#260,.T.);
#129=ORIENTED_EDGE('',*,*,#219,.F.);
#130=ORIENTED_EDGE('',*,*,#254,.F.);
#131=ORIENTED_EDGE('',*,*,#261,.T.);
#132=ORIENTED_EDGE('',*,*,#262,.T.);
#133=ORIENTED_EDGE('',*,*,#263,.F.);
#134=ORIENTED_EDGE('',*,*,#264,.T.);
#135=ORIENTED_EDGE('',*,*,#212,.T.);
#136=ORIENTED_EDGE('',*,*,#220,.F.);
#137=ORIENTED_EDGE('',*,*,#260,.F.);
#138=ORIENTED_EDGE('',*,*,#265,.F.);
#139=ORIENTED_EDGE('',*,*,#266,.T.);
#140=ORIENTED_EDGE('',*,*,#267,.T.);
#141=ORIENTED_EDGE('',*,*,#268,.F.);
#142=ORIENTED_EDGE('',*,*,#269,.T.);
#143=ORIENTED_EDGE('',*,*,#215,.F.);
#144=ORIENTED_EDGE('',*,*,#270,.F.);
#145=ORIENTED_EDGE('',*,*,#271,.F.);
#146=ORIENTED_EDGE('',*,*,#272,.T.);
#147=ORIENTED_EDGE('',*,*,#273,.F.);
#148=ORIENTED_EDGE('',*,*,#274,.F.);
#149=ORIENTED_EDGE('',*,*,#275,.T.);
#150=ORIENTED_EDGE('',*,*,#270,.T.);
#151=ORIENTED_EDGE('',*,*,#214,.T.);
#152=ORIENTED_EDGE('',*,*,#276,.F.);
#153=ORIENTED_EDGE('',*,*,#277,.T.);
#154=ORIENTED_EDGE('',*,*,#278,.T.);
#155=ORIENTED_EDGE('',*,*,#279,.F.);
#156=ORIENTED_EDGE('',*,*,#280,.T.);
#157=ORIENTED_EDGE('',*,*,#274,.T.);
#158=ORIENTED_EDGE('',*,*,#217,.T.);
#159=ORIENTED_EDGE('',*,*,#281,.F.);
#160=ORIENTED_EDGE('',*,*,#282,.T.);
#161=ORIENTED_EDGE('',*,*,#269,.F.);
#162=ORIENTED_EDGE('',*,*,#283,.T.);
#163=ORIENTED_EDGE('',*,*,#281,.T.);
#164=ORIENTED_EDGE('',*,*,#216,.T.);
#165=ORIENTED_EDGE('',*,*,#278,.F.);
#166=ORIENTED_EDGE('',*,*,#284,.T.);
#167=ORIENTED_EDGE('',*,*,#273,.T.);
#168=ORIENTED_EDGE('',*,*,#285,.T.);
#169=ORIENTED_EDGE('',*,*,#286,.T.);
#170=ORIENTED_EDGE('',*,*,#279,.T.);
#171=ORIENTED_EDGE('',*,*,#285,.F.);
#172=ORIENTED_EDGE('',*,*,#272,.F.);
#173=ORIENTED_EDGE('',*,*,#271,.T.);
#174=ORIENTED_EDGE('',*,*,#275,.F.);
#175=ORIENTED_EDGE('',*,*,#280,.F.);
#176=ORIENTED_EDGE('',*,*,#286,.F.);
#177=ORIENTED_EDGE('',*,*,#267,.F.);
#178=ORIENTED_EDGE('',*,*,#287,.T.);
#179=ORIENTED_EDGE('',*,*,#276,.T.);
#180=ORIENTED_EDGE('',*,*,#288,.F.);
#181=ORIENTED_EDGE('',*,*,#268,.T.);
#182=ORIENTED_EDGE('',*,*,#288,.T.);
#183=ORIENTED_EDGE('',*,*,#282,.F.);
#184=ORIENTED_EDGE('',*,*,#283,.F.);
#185=ORIENTED_EDGE('',*,*,#257,.T.);
#186=ORIENTED_EDGE('',*,*,#209,.T.);
#187=ORIENTED_EDGE('',*,*,#264,.F.);
#188=ORIENTED_EDGE('',*,*,#289,.F.);
#189=ORIENTED_EDGE('',*,*,#263,.T.);
#190=ORIENTED_EDGE('',*,*,#290,.T.);
#191=ORIENTED_EDGE('',*,*,#258,.F.);
#192=ORIENTED_EDGE('',*,*,#289,.T.);
#193=ORIENTED_EDGE('',*,*,#291,.T.);
#194=ORIENTED_EDGE('',*,*,#265,.T.);
#195=ORIENTED_EDGE('',*,*,#259,.F.);
#196=ORIENTED_EDGE('',*,*,#253,.F.);
#197=ORIENTED_EDGE('',*,*,#252,.T.);
#198=ORIENTED_EDGE('',*,*,#292,.T.);
#199=ORIENTED_EDGE('',*,*,#261,.F.);
#200=ORIENTED_EDGE('',*,*,#291,.F.);
#201=ORIENTED_EDGE('',*,*,#262,.F.);
#202=ORIENTED_EDGE('',*,*,#292,.F.);
#203=ORIENTED_EDGE('',*,*,#251,.F.);
#204=ORIENTED_EDGE('',*,*,#290,.F.);
#205=ORIENTED_EDGE('',*,*,#277,.F.);
#206=ORIENTED_EDGE('',*,*,#287,.F.);
#207=ORIENTED_EDGE('',*,*,#266,.F.);
#208=ORIENTED_EDGE('',*,*,#284,.F.);
#209=EDGE_CURVE('',#293,#294,#352,.T.);
#210=EDGE_CURVE('',#293,#295,#353,.T.);
#211=EDGE_CURVE('',#295,#296,#354,.T.);
#212=EDGE_CURVE('',#294,#296,#355,.T.);
#213=EDGE_CURVE('',#297,#297,#22,.T.);
#214=EDGE_CURVE('',#298,#299,#356,.T.);
#215=EDGE_CURVE('',#298,#300,#357,.T.);
#216=EDGE_CURVE('',#301,#300,#358,.T.);
#217=EDGE_CURVE('',#299,#301,#359,.T.);
#218=EDGE_CURVE('',#302,#303,#360,.T.);
#219=EDGE_CURVE('',#303,#304,#361,.T.);
#220=EDGE_CURVE('',#304,#296,#362,.T.);
#221=EDGE_CURVE('',#295,#305,#363,.T.);
#222=EDGE_CURVE('',#305,#306,#23,.T.);
#223=EDGE_CURVE('',#306,#307,#364,.T.);
#224=EDGE_CURVE('',#307,#308,#365,.T.);
#225=EDGE_CURVE('',#309,#308,#366,.T.);
#226=EDGE_CURVE('',#309,#302,#24,.T.);
#227=EDGE_CURVE('',#310,#310,#25,.T.);
#228=EDGE_CURVE('',#311,#312,#367,.T.);
#229=EDGE_CURVE('',#311,#313,#26,.F.);
#230=EDGE_CURVE('',#313,#314,#368,.T.);
#231=EDGE_CURVE('',#314,#315,#27,.T.);
#232=EDGE_CURVE('',#316,#315,#369,.T.);
#233=EDGE_CURVE('',#316,#312,#28,.F.);
#234=EDGE_CURVE('',#317,#317,#29,.T.);
#235=EDGE_CURVE('',#318,#318,#30,.F.);
#236=EDGE_CURVE('',#319,#319,#31,.T.);
#237=EDGE_CURVE('',#320,#320,#32,.T.);
#238=EDGE_CURVE('',#321,#321,#33,.T.);
#239=EDGE_CURVE('',#322,#322,#34,.F.);
#240=EDGE_CURVE('',#314,#323,#370,.T.);
#241=EDGE_CURVE('',#323,#324,#35,.F.);
#242=EDGE_CURVE('',#315,#324,#371,.T.);
#243=EDGE_CURVE('',#325,#325,#36,.T.);
#244=EDGE_CURVE('',#326,#327,#372,.T.);
#245=EDGE_CURVE('',#326,#324,#373,.T.);
#246=EDGE_CURVE('',#327,#323,#374,.T.);
#247=EDGE_CURVE('',#313,#309,#375,.F.);
#248=EDGE_CURVE('',#308,#327,#376,.T.);
#249=EDGE_CURVE('',#306,#316,#377,.T.);
#250=EDGE_CURVE('',#307,#326,#378,.T.);
#251=EDGE_CURVE('',#328,#329,#37,.F.);
#252=EDGE_CURVE('',#330,#329,#379,.T.);
#253=EDGE_CURVE('',#330,#331,#380,.T.);
#254=EDGE_CURVE('',#331,#303,#381,.T.);
#255=EDGE_CURVE('',#302,#311,#382,.T.);
#256=EDGE_CURVE('',#312,#305,#383,.F.);
#257=EDGE_CURVE('',#332,#293,#384,.T.);
#258=EDGE_CURVE('',#332,#328,#385,.T.);
#259=EDGE_CURVE('',#331,#333,#386,.T.);
#260=EDGE_CURVE('',#333,#304,#387,.T.);
#261=EDGE_CURVE('',#334,#335,#388,.T.);
#262=EDGE_CURVE('',#335,#336,#38,.T.);
#263=EDGE_CURVE('',#337,#336,#389,.T.);
#264=EDGE_CURVE('',#337,#294,#390,.T.);
#265=EDGE_CURVE('',#334,#333,#391,.T.);
#266=EDGE_CURVE('',#338,#339,#39,.T.);
#267=EDGE_CURVE('',#339,#340,#392,.T.);
#268=EDGE_CURVE('',#341,#340,#393,.T.);
#269=EDGE_CURVE('',#341,#300,#394,.T.);
#270=EDGE_CURVE('',#342,#298,#395,.T.);
#271=EDGE_CURVE('',#343,#342,#396,.T.);
#272=EDGE_CURVE('',#343,#344,#397,.T.);
#273=EDGE_CURVE('',#338,#344,#398,.T.);
#274=EDGE_CURVE('',#345,#299,#399,.T.);
#275=EDGE_CURVE('',#345,#342,#400,.T.);
#276=EDGE_CURVE('',#346,#347,#401,.T.);
#277=EDGE_CURVE('',#346,#348,#40,.F.);
#278=EDGE_CURVE('',#348,#349,#402,.T.);
#279=EDGE_CURVE('',#350,#349,#403,.T.);
#280=EDGE_CURVE('',#350,#345,#404,.T.);
#281=EDGE_CURVE('',#351,#301,#405,.T.);
#282=EDGE_CURVE('',#351,#347,#406,.T.);
#283=EDGE_CURVE('',#341,#351,#407,.T.);
#284=EDGE_CURVE('',#348,#338,#408,.F.);
#285=EDGE_CURVE('',#344,#349,#409,.T.);
#286=EDGE_CURVE('',#343,#350,#410,.T.);
#287=EDGE_CURVE('',#339,#346,#411,.T.);
#288=EDGE_CURVE('',#340,#347,#412,.T.);
#289=EDGE_CURVE('',#332,#337,#413,.T.);
#290=EDGE_CURVE('',#336,#328,#414,.F.);
#291=EDGE_CURVE('',#330,#334,#415,.T.);
#292=EDGE_CURVE('',#329,#335,#416,.T.);
#293=VERTEX_POINT('',#891);
#294=VERTEX_POINT('',#892);
#295=VERTEX_POINT('',#894);
#296=VERTEX_POINT('',#896);
#297=VERTEX_POINT('',#900);
#298=VERTEX_POINT('',#902);
#299=VERTEX_POINT('',#903);
#300=VERTEX_POINT('',#905);
#301=VERTEX_POINT('',#907);
#302=VERTEX_POINT('',#911);
#303=VERTEX_POINT('',#912);
#304=VERTEX_POINT('',#914);
#305=VERTEX_POINT('',#917);
#306=VERTEX_POINT('',#919);
#307=VERTEX_POINT('',#921);
#308=VERTEX_POINT('',#923);
#309=VERTEX_POINT('',#925);
#310=VERTEX_POINT('',#929);
#311=VERTEX_POINT('',#931);
#312=VERTEX_POINT('',#932);
#313=VERTEX_POINT('',#934);
#314=VERTEX_POINT('',#936);
#315=VERTEX_POINT('',#938);
#316=VERTEX_POINT('',#940);
#317=VERTEX_POINT('',#944);
#318=VERTEX_POINT('',#946);
#319=VERTEX_POINT('',#949);
#320=VERTEX_POINT('',#951);
#321=VERTEX_POINT('',#954);
#322=VERTEX_POINT('',#956);
#323=VERTEX_POINT('',#961);
#324=VERTEX_POINT('',#963);
#325=VERTEX_POINT('',#967);
#326=VERTEX_POINT('',#971);
#327=VERTEX_POINT('',#972);
#328=VERTEX_POINT('',#983);
#329=VERTEX_POINT('',#984);
#330=VERTEX_POINT('',#986);
#331=VERTEX_POINT('',#988);
#332=VERTEX_POINT('',#993);
#333=VERTEX_POINT('',#1001);
#334=VERTEX_POINT('',#1005);
#335=VERTEX_POINT('',#1006);
#336=VERTEX_POINT('',#1008);
#337=VERTEX_POINT('',#1010);
#338=VERTEX_POINT('',#1015);
#339=VERTEX_POINT('',#1016);
#340=VERTEX_POINT('',#1018);
#341=VERTEX_POINT('',#1020);
#342=VERTEX_POINT('',#1023);
#343=VERTEX_POINT('',#1025);
#344=VERTEX_POINT('',#1027);
#345=VERTEX_POINT('',#1031);
#346=VERTEX_POINT('',#1035);
#347=VERTEX_POINT('',#1036);
#348=VERTEX_POINT('',#1038);
#349=VERTEX_POINT('',#1040);
#350=VERTEX_POINT('',#1042);
#351=VERTEX_POINT('',#1045);
#352=LINE('',#890,#417);
#353=LINE('',#893,#418);
#354=LINE('',#895,#419);
#355=LINE('',#897,#420);
#356=LINE('',#901,#421);
#357=LINE('',#904,#422);
#358=LINE('',#906,#423);
#359=LINE('',#908,#424);
#360=LINE('',#910,#425);
#361=LINE('',#913,#426);
#362=LINE('',#915,#427);
#363=LINE('',#916,#428);
#364=LINE('',#920,#429);
#365=LINE('',#922,#430);
#366=LINE('',#924,#431);
#367=LINE('',#930,#432);
#368=LINE('',#935,#433);
#369=LINE('',#939,#434);
#370=LINE('',#960,#435);
#371=LINE('',#964,#436);
#372=LINE('',#970,#437);
#373=LINE('',#973,#438);
#374=LINE('',#974,#439);
#375=LINE('',#976,#440);
#376=LINE('',#977,#441);
#377=LINE('',#979,#442);
#378=LINE('',#980,#443);
#379=LINE('',#985,#444);
#380=LINE('',#987,#445);
#381=LINE('',#989,#446);
#382=LINE('',#990,#447);
#383=LINE('',#991,#448);
#384=LINE('',#992,#449);
#385=LINE('',#994,#450);
#386=LINE('',#1000,#451);
#387=LINE('',#1002,#452);
#388=LINE('',#1004,#453);
#389=LINE('',#1009,#454);
#390=LINE('',#1011,#455);
#391=LINE('',#1012,#456);
#392=LINE('',#1017,#457);
#393=LINE('',#1019,#458);
#394=LINE('',#1021,#459);
#395=LINE('',#1022,#460);
#396=LINE('',#1024,#461);
#397=LINE('',#1026,#462);
#398=LINE('',#1028,#463);
#399=LINE('',#1030,#464);
#400=LINE('',#1032,#465);
#401=LINE('',#1034,#466);
#402=LINE('',#1039,#467);
#403=LINE('',#1041,#468);
#404=LINE('',#1043,#469);
#405=LINE('',#1044,#470);
#406=LINE('',#1046,#471);
#407=LINE('',#1048,#472);
#408=LINE('',#1050,#473);
#409=LINE('',#1051,#474);
#410=LINE('',#1053,#475);
#411=LINE('',#1056,#476);
#412=LINE('',#1057,#477);
#413=LINE('',#1060,#478);
#414=LINE('',#1062,#479);
#415=LINE('',#1064,#480);
#416=LINE('',#1066,#481);
#417=VECTOR('',#713,1.);
#418=VECTOR('',#714,1.);
#419=VECTOR('',#715,1.);
#420=VECTOR('',#716,1.);
#421=VECTOR('',#721,1.);
#422=VECTOR('',#722,1.);
#423=VECTOR('',#723,1.);
#424=VECTOR('',#724,1.);
#425=VECTOR('',#727,1.);
#426=VECTOR('',#728,1.);
#427=VECTOR('',#729,1.);
#428=VECTOR('',#730,1.);
#429=VECTOR('',#733,1.);
#430=VECTOR('',#734,1.);
#431=VECTOR('',#735,1.);
#432=VECTOR('',#742,1.);
#433=VECTOR('',#745,1.);
#434=VECTOR('',#748,1.);
#435=VECTOR('',#775,1.);
#436=VECTOR('',#778,1.);
#437=VECTOR('',#787,1.);
#438=VECTOR('',#788,1.);
#439=VECTOR('',#789,1.);
#440=VECTOR('',#792,1.);
#441=VECTOR('',#793,1.);
#442=VECTOR('',#796,1.);
#443=VECTOR('',#797,1.);
#444=VECTOR('',#802,1.);
#445=VECTOR('',#803,1.);
#446=VECTOR('',#804,1.);
#447=VECTOR('',#805,1.);
#448=VECTOR('',#806,1.);
#449=VECTOR('',#807,1.);
#450=VECTOR('',#808,1.);
#451=VECTOR('',#819,1.);
#452=VECTOR('',#820,1.);
#453=VECTOR('',#823,1.);
#454=VECTOR('',#826,1.);
#455=VECTOR('',#827,1.);
#456=VECTOR('',#828,1.);
#457=VECTOR('',#833,1.);
#458=VECTOR('',#834,1.);
#459=VECTOR('',#835,1.);
#460=VECTOR('',#836,1.);
#461=VECTOR('',#837,1.);
#462=VECTOR('',#838,1.);
#463=VECTOR('',#839,1.);
#464=VECTOR('',#842,1.);
#465=VECTOR('',#843,1.);
#466=VECTOR('',#846,1.);
#467=VECTOR('',#849,1.);
#468=VECTOR('',#850,1.);
#469=VECTOR('',#851,1.);
#470=VECTOR('',#852,1.);
#471=VECTOR('',#853,1.);
#472=VECTOR('',#856,1.);
#473=VECTOR('',#859,1.);
#474=VECTOR('',#860,1.);
#475=VECTOR('',#863,1.);
#476=VECTOR('',#868,1.);
#477=VECTOR('',#869,1.);
#478=VECTOR('',#874,1.);
#479=VECTOR('',#877,1.);
#480=VECTOR('',#880,1.);
#481=VECTOR('',#883,1.);
#482=EDGE_LOOP('',(#41,#42,#43,#44));
#483=EDGE_LOOP('',(#45));
#484=EDGE_LOOP('',(#46,#47,#48,#49));
#485=EDGE_LOOP('',(#50,#51,#52,#53,#54,#55,#56,#57,#58,#59));
#486=EDGE_LOOP('',(#60));
#487=EDGE_LOOP('',(#61,#62,#63,#64,#65,#66));
#488=EDGE_LOOP('',(#67));
#489=EDGE_LOOP('',(#68));
#490=EDGE_LOOP('',(#69));
#491=EDGE_LOOP('',(#70));
#492=EDGE_LOOP('',(#71));
#493=EDGE_LOOP('',(#72));
#494=EDGE_LOOP('',(#73));
#495=EDGE_LOOP('',(#74));
#496=EDGE_LOOP('',(#75));
#497=EDGE_LOOP('',(#76));
#498=EDGE_LOOP('',(#77,#78,#79,#80));
#499=EDGE_LOOP('',(#81));
#500=EDGE_LOOP('',(#82));
#501=EDGE_LOOP('',(#83));
#502=EDGE_LOOP('',(#84));
#503=EDGE_LOOP('',(#85,#86,#87,#88));
#504=EDGE_LOOP('',(#89,#90,#91,#92,#93,#94));
#505=EDGE_LOOP('',(#95,#96,#97,#98,#99,#100));
#506=EDGE_LOOP('',(#101,#102,#103,#104,#105,#106,#107,#108,#109,#110,#111,
#112));
#507=EDGE_LOOP('',(#113,#114,#115,#116));
#508=EDGE_LOOP('',(#117,#118,#119,#120));
#509=EDGE_LOOP('',(#121,#122,#123,#124));
#510=EDGE_LOOP('',(#125));
#511=EDGE_LOOP('',(#126));
#512=EDGE_LOOP('',(#127,#128,#129,#130));
#513=EDGE_LOOP('',(#131,#132,#133,#134,#135,#136,#137,#138));
#514=EDGE_LOOP('',(#139,#140,#141,#142,#143,#144,#145,#146,#147));
#515=EDGE_LOOP('',(#148,#149,#150,#151));
#516=EDGE_LOOP('',(#152,#153,#154,#155,#156,#157,#158,#159,#160));
#517=EDGE_LOOP('',(#161,#162,#163,#164));
#518=EDGE_LOOP('',(#165,#166,#167,#168));
#519=EDGE_LOOP('',(#169,#170,#171,#172));
#520=EDGE_LOOP('',(#173,#174,#175,#176));
#521=EDGE_LOOP('',(#177,#178,#179,#180));
#522=EDGE_LOOP('',(#181,#182,#183,#184));
#523=EDGE_LOOP('',(#185,#186,#187,#188));
#524=EDGE_LOOP('',(#189,#190,#191,#192));
#525=EDGE_LOOP('',(#193,#194,#195,#196));
#526=EDGE_LOOP('',(#197,#198,#199,#200));
#527=EDGE_LOOP('',(#201,#202,#203,#204));
#528=EDGE_LOOP('',(#205,#206,#207,#208));
#529=FACE_BOUND('',#482,.T.);
#530=FACE_BOUND('',#483,.T.);
#531=FACE_BOUND('',#484,.T.);
#532=FACE_BOUND('',#485,.T.);
#533=FACE_BOUND('',#486,.T.);
#534=FACE_BOUND('',#487,.T.);
#535=FACE_BOUND('',#488,.T.);
#536=FACE_BOUND('',#489,.T.);
#537=FACE_BOUND('',#490,.T.);
#538=FACE_BOUND('',#491,.T.);
#539=FACE_BOUND('',#492,.T.);
#540=FACE_BOUND('',#493,.T.);
#541=FACE_BOUND('',#494,.T.);
#542=FACE_BOUND('',#495,.T.);
#543=FACE_BOUND('',#496,.T.);
#544=FACE_BOUND('',#497,.T.);
#545=FACE_BOUND('',#498,.T.);
#546=FACE_BOUND('',#499,.T.);
#547=FACE_BOUND('',#500,.T.);
#548=FACE_BOUND('',#501,.T.);
#549=FACE_BOUND('',#502,.T.);
#550=FACE_BOUND('',#503,.T.);
#551=FACE_BOUND('',#504,.T.);
#552=FACE_BOUND('',#505,.T.);
#553=FACE_BOUND('',#506,.T.);
#554=FACE_BOUND('',#507,.T.);
#555=FACE_BOUND('',#508,.T.);
#556=FACE_BOUND('',#509,.T.);
#557=FACE_BOUND('',#510,.T.);
#558=FACE_BOUND('',#511,.T.);
#559=FACE_BOUND('',#512,.T.);
#560=FACE_BOUND('',#513,.T.);
#561=FACE_BOUND('',#514,.T.);
#562=FACE_BOUND('',#515,.T.);
#563=FACE_BOUND('',#516,.T.);
#564=FACE_BOUND('',#517,.T.);
#565=FACE_BOUND('',#518,.T.);
#566=FACE_BOUND('',#519,.T.);
#567=FACE_BOUND('',#520,.T.);
#568=FACE_BOUND('',#521,.T.);
#569=FACE_BOUND('',#522,.T.);
#570=FACE_BOUND('',#523,.T.);
#571=FACE_BOUND('',#524,.T.);
#572=FACE_BOUND('',#525,.T.);
#573=FACE_BOUND('',#526,.T.);
#574=FACE_BOUND('',#527,.T.);
#575=FACE_BOUND('',#528,.T.);
#576=PLANE('',#653);
#577=PLANE('',#654);
#578=PLANE('',#656);
#579=PLANE('',#659);
#580=PLANE('',#667);
#581=PLANE('',#670);
#582=PLANE('',#679);
#583=PLANE('',#680);
#584=PLANE('',#681);
#585=PLANE('',#682);
#586=PLANE('',#683);
#587=PLANE('',#685);
#588=PLANE('',#689);
#589=PLANE('',#690);
#590=PLANE('',#692);
#591=PLANE('',#694);
#592=PLANE('',#695);
#593=PLANE('',#697);
#594=PLANE('',#698);
#595=PLANE('',#699);
#596=PLANE('',#700);
#597=PLANE('',#701);
#598=PLANE('',#702);
#599=PLANE('',#703);
#600=PLANE('',#704);
#601=PLANE('',#705);
#602=PLANE('',#706);
#603=ADVANCED_FACE('',(#529),#576,.F.);
#604=ADVANCED_FACE('',(#530,#531),#577,.T.);
#605=ADVANCED_FACE('',(#532),#578,.T.);
#606=ADVANCED_FACE('',(#533,#534),#579,.T.);
#607=ADVANCED_FACE('',(#535,#536),#14,.T.);
#608=ADVANCED_FACE('',(#537,#538),#580,.T.);
#609=ADVANCED_FACE('',(#539,#540),#581,.F.);
#610=ADVANCED_FACE('',(#541,#542),#12,.T.);
#611=ADVANCED_FACE('',(#543,#544),#13,.T.);
#612=ADVANCED_FACE('',(#545,#546),#15,.F.);
#613=ADVANCED_FACE('',(#547,#548),#16,.F.);
#614=ADVANCED_FACE('',(#549),#582,.T.);
#615=ADVANCED_FACE('',(#550),#583,.T.);
#616=ADVANCED_FACE('',(#551),#584,.T.);
#617=ADVANCED_FACE('',(#552),#585,.F.);
#618=ADVANCED_FACE('',(#553),#586,.F.);
#619=ADVANCED_FACE('',(#554),#587,.F.);
#620=ADVANCED_FACE('',(#555),#17,.T.);
#621=ADVANCED_FACE('',(#556),#18,.T.);
#622=ADVANCED_FACE('',(#557,#558),#19,.T.);
#623=ADVANCED_FACE('',(#559),#588,.T.);
#624=ADVANCED_FACE('',(#560),#589,.T.);
#625=ADVANCED_FACE('',(#561),#590,.T.);
#626=ADVANCED_FACE('',(#562),#591,.F.);
#627=ADVANCED_FACE('',(#563),#592,.F.);
#628=ADVANCED_FACE('',(#564),#593,.F.);
#629=ADVANCED_FACE('',(#565),#594,.F.);
#630=ADVANCED_FACE('',(#566),#595,.T.);
#631=ADVANCED_FACE('',(#567),#596,.F.);
#632=ADVANCED_FACE('',(#568),#597,.T.);
#633=ADVANCED_FACE('',(#569),#598,.F.);
#634=ADVANCED_FACE('',(#570),#599,.T.);
#635=ADVANCED_FACE('',(#571),#600,.F.);
#636=ADVANCED_FACE('',(#572),#601,.F.);
#637=ADVANCED_FACE('',(#573),#602,.T.);
#638=ADVANCED_FACE('',(#574),#20,.T.);
#639=ADVANCED_FACE('',(#575),#21,.T.);
#640=CLOSED_SHELL('',(#603,#604,#605,#606,#607,#608,#609,#610,#611,#612,
#613,#614,#615,#616,#617,#618,#619,#620,#621,#622,#623,#624,#625,#626,#627,
#628,#629,#630,#631,#632,#633,#634,#635,#636,#637,#638,#639));
#641=STYLED_ITEM('',(#642),#649);
#642=PRESENTATION_STYLE_ASSIGNMENT((#643));
#643=SURFACE_STYLE_USAGE(.BOTH.,#644);
#644=SURFACE_SIDE_STYLE('',(#645));
#645=SURFACE_STYLE_FILL_AREA(#646);
#646=FILL_AREA_STYLE('',(#647));
#647=FILL_AREA_STYLE_COLOUR('',#648);
#648=COLOUR_RGB('',0.43921568627451,0.474509803921569,0.501960784313726);
#649=MANIFOLD_SOLID_BREP('Part 1',#640);
#650=SHAPE_DEFINITION_REPRESENTATION(#1075,#651);
#651=SHAPE_REPRESENTATION('Part 1',(#652),#1070);
#652=AXIS2_PLACEMENT_3D('',#888,#709,#710);
#653=AXIS2_PLACEMENT_3D('',#889,#711,#712);
#654=AXIS2_PLACEMENT_3D('',#898,#717,#718);
#655=AXIS2_PLACEMENT_3D('',#899,#719,#720);
#656=AXIS2_PLACEMENT_3D('',#909,#725,#726);
#657=AXIS2_PLACEMENT_3D('',#918,#731,#732);
#658=AXIS2_PLACEMENT_3D('',#926,#736,#737);
#659=AXIS2_PLACEMENT_3D('',#927,#738,#739);
#660=AXIS2_PLACEMENT_3D('',#928,#740,#741);
#661=AXIS2_PLACEMENT_3D('',#933,#743,#744);
#662=AXIS2_PLACEMENT_3D('',#937,#746,#747);
#663=AXIS2_PLACEMENT_3D('',#941,#749,#750);
#664=AXIS2_PLACEMENT_3D('',#942,#751,#752);
#665=AXIS2_PLACEMENT_3D('',#943,#753,#754);
#666=AXIS2_PLACEMENT_3D('',#945,#755,#756);
#667=AXIS2_PLACEMENT_3D('',#947,#757,#758);
#668=AXIS2_PLACEMENT_3D('',#948,#759,#760);
#669=AXIS2_PLACEMENT_3D('',#950,#761,#762);
#670=AXIS2_PLACEMENT_3D('',#952,#763,#764);
#671=AXIS2_PLACEMENT_3D('',#953,#765,#766);
#672=AXIS2_PLACEMENT_3D('',#955,#767,#768);
#673=AXIS2_PLACEMENT_3D('',#957,#769,#770);
#674=AXIS2_PLACEMENT_3D('',#958,#771,#772);
#675=AXIS2_PLACEMENT_3D('',#959,#773,#774);
#676=AXIS2_PLACEMENT_3D('',#962,#776,#777);
#677=AXIS2_PLACEMENT_3D('',#965,#779,#780);
#678=AXIS2_PLACEMENT_3D('',#966,#781,#782);
#679=AXIS2_PLACEMENT_3D('',#968,#783,#784);
#680=AXIS2_PLACEMENT_3D('',#969,#785,#786);
#681=AXIS2_PLACEMENT_3D('',#975,#790,#791);
#682=AXIS2_PLACEMENT_3D('',#978,#794,#795);
#683=AXIS2_PLACEMENT_3D('',#981,#798,#799);
#684=AXIS2_PLACEMENT_3D('',#982,#800,#801);
#685=AXIS2_PLACEMENT_3D('',#995,#809,#810);
#686=AXIS2_PLACEMENT_3D('',#996,#811,#812);
#687=AXIS2_PLACEMENT_3D('',#997,#813,#814);
#688=AXIS2_PLACEMENT_3D('',#998,#815,#816);
#689=AXIS2_PLACEMENT_3D('',#999,#817,#818);
#690=AXIS2_PLACEMENT_3D('',#1003,#821,#822);
#691=AXIS2_PLACEMENT_3D('',#1007,#824,#825);
#692=AXIS2_PLACEMENT_3D('',#1013,#829,#830);
#693=AXIS2_PLACEMENT_3D('',#1014,#831,#832);
#694=AXIS2_PLACEMENT_3D('',#1029,#840,#841);
#695=AXIS2_PLACEMENT_3D('',#1033,#844,#845);
#696=AXIS2_PLACEMENT_3D('',#1037,#847,#848);
#697=AXIS2_PLACEMENT_3D('',#1047,#854,#855);
#698=AXIS2_PLACEMENT_3D('',#1049,#857,#858);
#699=AXIS2_PLACEMENT_3D('',#1052,#861,#862);
#700=AXIS2_PLACEMENT_3D('',#1054,#864,#865);
#701=AXIS2_PLACEMENT_3D('',#1055,#866,#867);
#702=AXIS2_PLACEMENT_3D('',#1058,#870,#871);
#703=AXIS2_PLACEMENT_3D('',#1059,#872,#873);
#704=AXIS2_PLACEMENT_3D('',#1061,#875,#876);
#705=AXIS2_PLACEMENT_3D('',#1063,#878,#879);
#706=AXIS2_PLACEMENT_3D('',#1065,#881,#882);
#707=AXIS2_PLACEMENT_3D('',#1067,#884,#885);
#708=AXIS2_PLACEMENT_3D('',#1068,#886,#887);
#709=DIRECTION('',(0.,0.,1.));
#710=DIRECTION('',(1.,0.,0.));
#711=DIRECTION('',(0.,1.,0.));
#712=DIRECTION('',(0.,0.,1.));
#713=DIRECTION('',(-1.,0.,0.));
#714=DIRECTION('',(0.,0.,1.));
#715=DIRECTION('',(-1.,0.,0.));
#716=DIRECTION('',(0.,0.,1.));
#717=DIRECTION('',(0.,0.,-1.));
#718=DIRECTION('',(1.,0.,0.));
#719=DIRECTION('',(0.,0.,-1.));
#720=DIRECTION('',(-1.,0.,0.));
#721=DIRECTION('',(-1.,0.,0.));
#722=DIRECTION('',(0.,1.,0.));
#723=DIRECTION('',(1.,0.,0.));
#724=DIRECTION('',(0.,1.,0.));
#725=DIRECTION('',(0.,0.,-1.));
#726=DIRECTION('',(1.,0.,0.));
#727=DIRECTION('',(0.,-1.,0.));
#728=DIRECTION('',(-1.,0.,0.));
#729=DIRECTION('',(0.,-1.,0.));
#730=DIRECTION('',(0.,-1.,0.));
#731=DIRECTION('',(0.,0.,-1.));
#732=DIRECTION('',(-1.,0.,0.));
#733=DIRECTION('',(-1.,0.,0.));
#734=DIRECTION('',(0.,1.,0.));
#735=DIRECTION('',(-1.,0.,0.));
#736=DIRECTION('',(0.,0.,-1.));
#737=DIRECTION('',(-1.,0.,0.));
#738=DIRECTION('',(0.,0.,-1.));
#739=DIRECTION('',(1.,0.,0.));
#740=DIRECTION('',(0.,0.,-1.));
#741=DIRECTION('',(-1.,0.,0.));
#742=DIRECTION('',(0.,-1.,0.));
#743=DIRECTION('',(0.,0.,-1.));
#744=DIRECTION('',(-1.,0.,0.));
#745=DIRECTION('',(-1.,0.,0.));
#746=DIRECTION('',(0.,0.,-1.));
#747=DIRECTION('',(-1.,0.,0.));
#748=DIRECTION('',(-1.,0.,0.));
#749=DIRECTION('',(0.,0.,-1.));
#750=DIRECTION('',(-1.,0.,0.));
#751=DIRECTION('',(0.,0.,-1.));
#752=DIRECTION('',(-1.,0.,0.));
#753=DIRECTION('',(0.,0.,1.));
#754=DIRECTION('',(1.,0.,0.));
#755=DIRECTION('',(0.,0.,1.));
#756=DIRECTION('',(1.,0.,0.));
#757=DIRECTION('',(0.,0.,1.));
#758=DIRECTION('',(1.,0.,0.));
#759=DIRECTION('',(0.,0.,1.));
#760=DIRECTION('',(1.,0.,0.));
#761=DIRECTION('',(0.,0.,1.));
#762=DIRECTION('',(1.,0.,0.));
#763=DIRECTION('',(0.,0.,1.));
#764=DIRECTION('',(1.,0.,0.));
#765=DIRECTION('',(0.,0.,-1.));
#766=DIRECTION('',(-1.,0.,0.));
#767=DIRECTION('',(0.,0.,1.));
#768=DIRECTION('',(1.,0.,0.));
#769=DIRECTION('',(0.,0.,1.));
#770=DIRECTION('',(1.,0.,0.));
#771=DIRECTION('',(0.,0.,1.));
#772=DIRECTION('',(1.,0.,0.));
#773=DIRECTION('',(0.,0.,-1.));
#774=DIRECTION('',(-1.,0.,0.));
#775=DIRECTION('',(0.,0.,-1.));
#776=DIRECTION('',(0.,0.,-1.));
#777=DIRECTION('',(-1.,0.,0.));
#778=DIRECTION('',(0.,0.,-1.));
#779=DIRECTION('',(0.,0.,1.));
#780=DIRECTION('',(1.,0.,0.));
#781=DIRECTION('',(0.,0.,1.));
#782=DIRECTION('',(1.,0.,0.));
#783=DIRECTION('',(0.,0.,1.));
#784=DIRECTION('',(1.,0.,0.));
#785=DIRECTION('',(0.,0.,-1.));
#786=DIRECTION('',(1.,0.,0.));
#787=DIRECTION('',(0.,1.,0.));
#788=DIRECTION('',(-1.,0.,0.));
#789=DIRECTION('',(-1.,0.,0.));
#790=DIRECTION('',(0.,1.,0.));
#791=DIRECTION('',(0.,0.,1.));
#792=DIRECTION('',(0.,0.,1.));
#793=DIRECTION('',(0.,0.,1.));
#794=DIRECTION('',(0.,1.,0.));
#795=DIRECTION('',(0.,0.,1.));
#796=DIRECTION('',(0.,0.,1.));
#797=DIRECTION('',(0.,0.,1.));
#798=DIRECTION('',(-1.,0.,0.));
#799=DIRECTION('',(0.,0.,1.));
#800=DIRECTION('',(-1.,0.,0.));
#801=DIRECTION('',(0.,0.,1.));
#802=DIRECTION('',(0.,0.,-1.));
#803=DIRECTION('',(0.,0.148340452930245,0.988936352868298));
#804=DIRECTION('',(0.,0.,1.));
#805=DIRECTION('',(0.,0.,1.));
#806=DIRECTION('',(0.,0.,1.));
#807=DIRECTION('',(0.,-0.148340452930245,0.988936352868298));
#808=DIRECTION('',(0.,4.33680868994202E-17,-1.));
#809=DIRECTION('',(1.,0.,0.));
#810=DIRECTION('',(0.,0.,-1.));
#811=DIRECTION('',(0.,0.,1.));
#812=DIRECTION('',(1.,0.,0.));
#813=DIRECTION('',(0.,0.,-1.));
#814=DIRECTION('',(-1.,0.,0.));
#815=DIRECTION('',(0.,0.,1.));
#816=DIRECTION('',(1.,0.,0.));
#817=DIRECTION('',(0.,1.,0.));
#818=DIRECTION('',(0.,0.,1.));
#819=DIRECTION('',(-1.,0.,0.));
#820=DIRECTION('',(0.,0.,1.));
#821=DIRECTION('',(-1.,0.,0.));
#822=DIRECTION('',(0.,0.,1.));
#823=DIRECTION('',(0.,0.,-1.));
#824=DIRECTION('',(-1.,0.,0.));
#825=DIRECTION('',(0.,0.,1.));
#826=DIRECTION('',(0.,4.33680868994202E-17,-1.));
#827=DIRECTION('',(0.,-0.148340452930245,0.988936352868298));
#828=DIRECTION('',(0.,0.148340452930245,0.988936352868298));
#829=DIRECTION('',(1.,0.,0.));
#830=DIRECTION('',(0.,0.,-1.));
#831=DIRECTION('',(1.,0.,0.));
#832=DIRECTION('',(0.,0.,-1.));
#833=DIRECTION('',(0.,0.,1.));
#834=DIRECTION('',(0.,-0.148340452930245,-0.988936352868298));
#835=DIRECTION('',(0.,0.,1.));
#836=DIRECTION('',(0.,0.,1.));
#837=DIRECTION('',(0.,-0.997604912452799,-0.0691696367638541));
#838=DIRECTION('',(0.,0.148340452930245,-0.988936352868298));
#839=DIRECTION('',(0.,-4.33680868994202E-17,1.));
#840=DIRECTION('',(0.,1.,0.));
#841=DIRECTION('',(0.,0.,1.));
#842=DIRECTION('',(0.,0.,1.));
#843=DIRECTION('',(1.,0.,0.));
#844=DIRECTION('',(1.,0.,0.));
#845=DIRECTION('',(0.,0.,-1.));
#846=DIRECTION('',(0.,0.,1.));
#847=DIRECTION('',(1.,0.,0.));
#848=DIRECTION('',(0.,0.,-1.));
#849=DIRECTION('',(0.,-4.33680868994202E-17,1.));
#850=DIRECTION('',(0.,0.148340452930245,-0.988936352868298));
#851=DIRECTION('',(0.,-0.997604912452799,-0.0691696367638541));
#852=DIRECTION('',(0.,0.,1.));
#853=DIRECTION('',(0.,-0.148340452930245,-0.988936352868298));
#854=DIRECTION('',(0.,-1.,0.));
#855=DIRECTION('',(0.,0.,-1.));
#856=DIRECTION('',(-1.,0.,0.));
#857=DIRECTION('',(0.,1.,4.33680868994202E-17));
#858=DIRECTION('',(0.,-4.33680868994202E-17,1.));
#859=DIRECTION('',(-1.,0.,0.));
#860=DIRECTION('',(-1.,0.,0.));
#861=DIRECTION('',(0.,-0.988936352868298,-0.148340452930245));
#862=DIRECTION('',(0.,0.148340452930245,-0.988936352868298));
#863=DIRECTION('',(-1.,0.,0.));
#864=DIRECTION('',(0.,-0.0691696367638541,0.997604912452799));
#865=DIRECTION('',(0.,-0.997604912452799,-0.0691696367638541));
#866=DIRECTION('',(0.,1.,0.));
#867=DIRECTION('',(0.,0.,1.));
#868=DIRECTION('',(-1.,0.,0.));
#869=DIRECTION('',(-1.,0.,0.));
#870=DIRECTION('',(0.,-0.988936352868298,0.148340452930245));
#871=DIRECTION('',(0.,-0.148340452930245,-0.988936352868298));
#872=DIRECTION('',(0.,-0.988936352868298,-0.148340452930245));
#873=DIRECTION('',(0.,0.148340452930245,-0.988936352868298));
#874=DIRECTION('',(-1.,0.,0.));
#875=DIRECTION('',(0.,1.,4.33680868994202E-17));
#876=DIRECTION('',(0.,-4.33680868994202E-17,1.));
#877=DIRECTION('',(-1.,0.,0.));
#878=DIRECTION('',(0.,-0.988936352868298,0.148340452930245));
#879=DIRECTION('',(0.,-0.148340452930245,-0.988936352868298));
#880=DIRECTION('',(-1.,0.,0.));
#881=DIRECTION('',(0.,1.,0.));
#882=DIRECTION('',(0.,0.,1.));
#883=DIRECTION('',(-1.,0.,0.));
#884=DIRECTION('',(1.,0.,0.));
#885=DIRECTION('',(0.,0.,-1.));
#886=DIRECTION('',(1.,0.,0.));
#887=DIRECTION('',(0.,0.,-1.));
#888=CARTESIAN_POINT('',(0.,0.,0.));
#889=CARTESIAN_POINT('',(-0.00268311533611268,-0.00065,-0.006));
#890=CARTESIAN_POINT('',(0.0221337693277747,-0.00065,-0.0025));
#891=CARTESIAN_POINT('',(-0.0025,-0.00065,-0.0025));
#892=CARTESIAN_POINT('',(-0.00286623067222535,-0.00065,-0.0025));
#893=CARTESIAN_POINT('',(-0.0025,-0.00065,-0.006));
#894=CARTESIAN_POINT('',(-0.0025,-0.00065,-2.71050543121376E-20));
#895=CARTESIAN_POINT('',(-0.00268311533611268,-0.00065,-2.71050543121376E-20));
#896=CARTESIAN_POINT('',(-0.00286623067222535,-0.00065,-2.71050543121376E-20));
#897=CARTESIAN_POINT('',(-0.00286623067222535,-0.00065,-0.006));
#898=CARTESIAN_POINT('',(8.58891042476093E-5,0.,0.));
#899=CARTESIAN_POINT('',(0.0025,-7.65404249467096E-20,0.));
#900=CARTESIAN_POINT('',(0.00125,-7.65404249467096E-20,0.));
#901=CARTESIAN_POINT('',(0.0024085,-0.000651154783554375,0.));
#902=CARTESIAN_POINT('',(0.002683,-0.000651154783554375,0.));
#903=CARTESIAN_POINT('',(0.002317,-0.000651154783554375,0.));
#904=CARTESIAN_POINT('',(0.002683,-2.77548679150641E-6,0.));
#905=CARTESIAN_POINT('',(0.002683,0.000645603809971362,0.));
#906=CARTESIAN_POINT('',(0.0024085,0.000645603809971362,0.));
#907=CARTESIAN_POINT('',(0.002317,0.000645603809971362,0.));
#908=CARTESIAN_POINT('',(0.002317,-0.000325577391777188,0.));
#909=CARTESIAN_POINT('',(-0.00575,0.,-2.71050543121376E-20));
#910=CARTESIAN_POINT('',(-0.0025,-0.000875,-2.71050543121376E-20));
#911=CARTESIAN_POINT('',(-0.0025,0.00125,-2.71050543121376E-20));
#912=CARTESIAN_POINT('',(-0.0025,0.00065,-2.71050543121376E-20));
#913=CARTESIAN_POINT('',(-0.00268311533611268,0.00065,-2.71050543121376E-20));
#914=CARTESIAN_POINT('',(-0.00286623067222535,0.00065,-2.71050543121376E-20));
#915=CARTESIAN_POINT('',(-0.00286623067222535,1.0842021724855E-19,-2.71050543121376E-20));
#916=CARTESIAN_POINT('',(-0.0025,-0.000875,-2.71050543121376E-20));
#917=CARTESIAN_POINT('',(-0.0025,-0.00125,-2.71050543121376E-20));
#918=CARTESIAN_POINT('',(-0.003,-0.00125,-2.71050543121376E-20));
#919=CARTESIAN_POINT('',(-0.003,-0.00175,-2.71050543121376E-20));
#920=CARTESIAN_POINT('',(-0.00583937278017402,-0.00175,-2.71050543121376E-20));
#921=CARTESIAN_POINT('',(-0.00566411089575239,-0.00175,-2.71050543121376E-20));
#922=CARTESIAN_POINT('',(-0.00566411089575239,2.16840434497101E-19,-2.71050543121376E-20));
#923=CARTESIAN_POINT('',(-0.00566411089575239,0.00175,-2.71050543121376E-20));
#924=CARTESIAN_POINT('',(-0.00583937278017402,0.00175,-2.71050543121376E-20));
#925=CARTESIAN_POINT('',(-0.003,0.00175,-2.71050543121376E-20));
#926=CARTESIAN_POINT('',(-0.003,0.00125,-2.71050543121376E-20));
#927=CARTESIAN_POINT('',(0.,0.,0.0003));
#928=CARTESIAN_POINT('',(0.0025,-7.65404249467096E-20,0.0003));
#929=CARTESIAN_POINT('',(0.00125,-7.65404249467096E-20,0.0003));
#930=CARTESIAN_POINT('',(-0.0025,-0.000875,0.0003));
#931=CARTESIAN_POINT('',(-0.0025,0.00125,0.0003));
#932=CARTESIAN_POINT('',(-0.0025,-0.00125,0.0003));
#933=CARTESIAN_POINT('',(-0.003,0.00125,0.0003));
#934=CARTESIAN_POINT('',(-0.003,0.00175,0.0003));
#935=CARTESIAN_POINT('',(-0.00583937278017402,0.00175,0.0003));
#936=CARTESIAN_POINT('',(-0.00882822179150479,0.00175,0.0003));
#937=CARTESIAN_POINT('',(0.,-5.51091059616309E-19,0.0003));
#938=CARTESIAN_POINT('',(-0.00882822179150479,-0.00175,0.0003));
#939=CARTESIAN_POINT('',(-0.00583937278017402,-0.00175,0.0003));
#940=CARTESIAN_POINT('',(-0.003,-0.00175,0.0003));
#941=CARTESIAN_POINT('',(-0.003,-0.00125,0.0003));
#942=CARTESIAN_POINT('',(0.,6.58247654541702E-19,0.008));
#943=CARTESIAN_POINT('',(0.,6.58247654541702E-19,0.0005));
#944=CARTESIAN_POINT('',(0.01075,6.58247654541702E-19,0.0005));
#945=CARTESIAN_POINT('',(0.,6.58247654541702E-19,0.0075));
#946=CARTESIAN_POINT('',(0.01075,6.58247654541702E-19,0.0075));
#947=CARTESIAN_POINT('',(0.,0.,0.008));
#948=CARTESIAN_POINT('',(0.,5.51091059616309E-19,0.008));
#949=CARTESIAN_POINT('',(0.009,5.51091059616309E-19,0.008));
#950=CARTESIAN_POINT('',(0.,6.58247654541702E-19,0.008));
#951=CARTESIAN_POINT('',(0.01025,6.58247654541702E-19,0.008));
#952=CARTESIAN_POINT('',(0.,0.,0.));
#953=CARTESIAN_POINT('',(0.,-5.51091059616309E-19,0.));
#954=CARTESIAN_POINT('',(-0.009,-5.51091059616309E-19,0.));
#955=CARTESIAN_POINT('',(0.,6.58247654541702E-19,0.));
#956=CARTESIAN_POINT('',(0.01025,6.58247654541702E-19,0.));
#957=CARTESIAN_POINT('',(0.,6.58247654541702E-19,0.0005));
#958=CARTESIAN_POINT('',(0.,6.58247654541702E-19,0.0075));
#959=CARTESIAN_POINT('',(0.,-5.51091059616309E-19,0.0003));
#960=CARTESIAN_POINT('',(-0.00882822179150479,0.00175,0.0003));
#961=CARTESIAN_POINT('',(-0.00882822179150479,0.00175,0.0002));
#962=CARTESIAN_POINT('',(0.,-5.51091059616309E-19,0.0002));
#963=CARTESIAN_POINT('',(-0.00882822179150479,-0.00175,0.0002));
#964=CARTESIAN_POINT('',(-0.00882822179150479,-0.00175,0.0003));
#965=CARTESIAN_POINT('',(0.,5.51091059616309E-19,0.0077));
#966=CARTESIAN_POINT('',(0.,5.51091059616309E-19,0.0077));
#967=CARTESIAN_POINT('',(0.009,5.51091059616309E-19,0.0077));
#968=CARTESIAN_POINT('',(0.,0.,0.0077));
#969=CARTESIAN_POINT('',(-0.000300044000148773,0.,0.0002));
#970=CARTESIAN_POINT('',(-0.00566411089575239,2.16840434497101E-19,0.0002));
#971=CARTESIAN_POINT('',(-0.00566411089575239,-0.00175,0.0002));
#972=CARTESIAN_POINT('',(-0.00566411089575239,0.00175,0.0002));
#973=CARTESIAN_POINT('',(-0.00583937278017402,-0.00175,0.0002));
#974=CARTESIAN_POINT('',(-0.00583937278017402,0.00175,0.0002));
#975=CARTESIAN_POINT('',(-0.00583937278017402,0.00175,0.0002));
#976=CARTESIAN_POINT('',(-0.003,0.00175,-2.71050543121376E-20));
#977=CARTESIAN_POINT('',(-0.00566411089575239,0.00175,-2.71050543121376E-20));
#978=CARTESIAN_POINT('',(-0.00583937278017402,-0.00175,0.0002));
#979=CARTESIAN_POINT('',(-0.003,-0.00175,0.0002));
#980=CARTESIAN_POINT('',(-0.00566411089575239,-0.00175,-2.71050543121376E-20));
#981=CARTESIAN_POINT('',(-0.0025,-0.000875,0.0002));
#982=CARTESIAN_POINT('',(-0.0025,2.49366499671666E-19,-0.0055));
#983=CARTESIAN_POINT('',(-0.0025,-0.0005,-0.0055));
#984=CARTESIAN_POINT('',(-0.0025,0.0005,-0.0055));
#985=CARTESIAN_POINT('',(-0.0025,0.0005,0.0002));
#986=CARTESIAN_POINT('',(-0.0025,0.0005,-0.0035));
#987=CARTESIAN_POINT('',(-0.0025,0.00101253056234719,-8.31295843520787E-5));
#988=CARTESIAN_POINT('',(-0.0025,0.00065,-0.0025));
#989=CARTESIAN_POINT('',(-0.0025,0.00065,-0.006));
#990=CARTESIAN_POINT('',(-0.0025,0.00125,0.0003));
#991=CARTESIAN_POINT('',(-0.0025,-0.00125,0.0002));
#992=CARTESIAN_POINT('',(-0.0025,-0.0010510391198044,0.00017359413202934));
#993=CARTESIAN_POINT('',(-0.0025,-0.0005,-0.0035));
#994=CARTESIAN_POINT('',(-0.0025,-0.0005,0.0002));
#995=CARTESIAN_POINT('',(-0.00566411089575239,2.16840434497101E-19,-2.71050543121376E-20));
#996=CARTESIAN_POINT('',(-0.003,-0.00125,0.0002));
#997=CARTESIAN_POINT('',(-0.003,0.00125,0.0002));
#998=CARTESIAN_POINT('',(0.0025,-7.65404249467096E-20,0.));
#999=CARTESIAN_POINT('',(-0.00268311533611268,0.00065,-0.006));
#1000=CARTESIAN_POINT('',(0.0221337693277747,0.00065,-0.0025));
#1001=CARTESIAN_POINT('',(-0.00286623067222535,0.00065,-0.0025));
#1002=CARTESIAN_POINT('',(-0.00286623067222535,0.00065,-0.006));
#1003=CARTESIAN_POINT('',(-0.00286623067222535,1.0842021724855E-19,-0.006));
#1004=CARTESIAN_POINT('',(-0.00286623067222535,0.0005,-0.00475));
#1005=CARTESIAN_POINT('',(-0.00286623067222535,0.0005,-0.0035));
#1006=CARTESIAN_POINT('',(-0.00286623067222535,0.0005,-0.0055));
#1007=CARTESIAN_POINT('',(-0.00286623067222535,2.49366499671666E-19,-0.0055));
#1008=CARTESIAN_POINT('',(-0.00286623067222535,-0.0005,-0.0055));
#1009=CARTESIAN_POINT('',(-0.00286623067222535,-0.0005,-0.00475));
#1010=CARTESIAN_POINT('',(-0.00286623067222535,-0.0005,-0.0035));
#1011=CARTESIAN_POINT('',(-0.00286623067222535,-0.000575,-0.003));
#1012=CARTESIAN_POINT('',(-0.00286623067222535,0.000575,-0.003));
#1013=CARTESIAN_POINT('',(0.002683,-2.77548679150641E-6,-0.006));
#1014=CARTESIAN_POINT('',(0.002683,2.49366499671666E-19,-0.0055));
#1015=CARTESIAN_POINT('',(0.002683,-0.0005,-0.0055));
#1016=CARTESIAN_POINT('',(0.002683,0.0005,-0.0055));
#1017=CARTESIAN_POINT('',(0.002683,0.0005,-0.006));
#1018=CARTESIAN_POINT('',(0.002683,0.0005,-0.0035));
#1019=CARTESIAN_POINT('',(0.002683,0.00012218831447158,-0.00601874457018946));
#1020=CARTESIAN_POINT('',(0.002683,0.000645603809971362,-0.00252930793352426));
#1021=CARTESIAN_POINT('',(0.002683,0.000645603809971362,-0.006));
#1022=CARTESIAN_POINT('',(0.002683,-0.000651154783554375,-0.006));
#1023=CARTESIAN_POINT('',(0.002683,-0.000651154783554375,-0.00250008006772822));
#1024=CARTESIAN_POINT('',(0.002683,-0.000247385985766445,-0.00247208447475254));
#1025=CARTESIAN_POINT('',(0.002683,-0.00065,-0.0025));
#1026=CARTESIAN_POINT('',(0.002683,-0.000122310463034531,-0.00601793024643645));
#1027=CARTESIAN_POINT('',(0.002683,-0.0005,-0.0035));
#1028=CARTESIAN_POINT('',(0.002683,-0.0005,-0.006));
#1029=CARTESIAN_POINT('',(0.0024085,-0.000651154783554375,-0.006));
#1030=CARTESIAN_POINT('',(0.002317,-0.000651154783554375,-0.006));
#1031=CARTESIAN_POINT('',(0.002317,-0.000651154783554375,-0.00250008006772822));
#1032=CARTESIAN_POINT('',(0.0024085,-0.000651154783554375,-0.00250008006772822));
#1033=CARTESIAN_POINT('',(0.002317,-0.000325577391777188,-0.006));
#1034=CARTESIAN_POINT('',(0.002317,0.0005,-0.006));
#1035=CARTESIAN_POINT('',(0.002317,0.0005,-0.0055));
#1036=CARTESIAN_POINT('',(0.002317,0.0005,-0.0035));
#1037=CARTESIAN_POINT('',(0.002317,2.49366499671666E-19,-0.0055));
#1038=CARTESIAN_POINT('',(0.002317,-0.0005,-0.0055));
#1039=CARTESIAN_POINT('',(0.002317,-0.0005,-0.006));
#1040=CARTESIAN_POINT('',(0.002317,-0.0005,-0.0035));
#1041=CARTESIAN_POINT('',(0.002317,-0.000129413683437639,-0.00597057544374907));
#1042=CARTESIAN_POINT('',(0.002317,-0.00065,-0.0025));
#1043=CARTESIAN_POINT('',(0.002317,-0.000568643464841605,-0.00249435908753553));
#1044=CARTESIAN_POINT('',(0.002317,0.000645603809971362,-0.006));
#1045=CARTESIAN_POINT('',(0.002317,0.000645603809971362,-0.00252930793352426));
#1046=CARTESIAN_POINT('',(0.002317,0.000115085094068472,-0.00606609937287685));
#1047=CARTESIAN_POINT('',(0.0024085,0.000645603809971362,-0.006));
#1048=CARTESIAN_POINT('',(0.0024085,0.000645603809971362,-0.00252930793352426));
#1049=CARTESIAN_POINT('',(0.0221337693277747,-0.0005,-0.00475));
#1050=CARTESIAN_POINT('',(0.002683,-0.0005,-0.0055));
#1051=CARTESIAN_POINT('',(0.0221337693277747,-0.0005,-0.0035));
#1052=CARTESIAN_POINT('',(0.0221337693277747,-0.000575,-0.003));
#1053=CARTESIAN_POINT('',(0.0221337693277747,-0.00065,-0.0025));
#1054=CARTESIAN_POINT('',(0.0221337693277747,-0.00109240188524127,-0.0025306742452085));
#1055=CARTESIAN_POINT('',(0.0221337693277747,0.0005,-0.00475));
#1056=CARTESIAN_POINT('',(0.0221337693277747,0.0005,-0.0055));
#1057=CARTESIAN_POINT('',(0.0221337693277747,0.0005,-0.0035));
#1058=CARTESIAN_POINT('',(0.0221337693277747,0.000575,-0.003));
#1059=CARTESIAN_POINT('',(0.0221337693277747,-0.000575,-0.003));
#1060=CARTESIAN_POINT('',(0.0221337693277747,-0.0005,-0.0035));
#1061=CARTESIAN_POINT('',(0.0221337693277747,-0.0005,-0.00475));
#1062=CARTESIAN_POINT('',(-0.0025,-0.0005,-0.0055));
#1063=CARTESIAN_POINT('',(0.0221337693277747,0.000575,-0.003));
#1064=CARTESIAN_POINT('',(0.0221337693277747,0.0005,-0.0035));
#1065=CARTESIAN_POINT('',(0.0221337693277747,0.0005,-0.00475));
#1066=CARTESIAN_POINT('',(0.0221337693277747,0.0005,-0.0055));
#1067=CARTESIAN_POINT('',(-0.0040820554478762,2.49366499671666E-19,-0.0055));
#1068=CARTESIAN_POINT('',(0.001875,2.49366499671666E-19,-0.0055));
#1069=MECHANICAL_DESIGN_GEOMETRIC_PRESENTATION_REPRESENTATION('',(#641),
#1070);
#1070=(
GEOMETRIC_REPRESENTATION_CONTEXT(3)
GLOBAL_UNCERTAINTY_ASSIGNED_CONTEXT((#1071))
GLOBAL_UNIT_ASSIGNED_CONTEXT((#1074,#1073,#1072))
REPRESENTATION_CONTEXT('Part 1','TOP_LEVEL_ASSEMBLY_PART')
);
#1071=UNCERTAINTY_MEASURE_WITH_UNIT(LENGTH_MEASURE(1.E-8),#1074,
'DISTANCE_ACCURACY_VALUE','Maximum Tolerance applied to model');
#1072=(
NAMED_UNIT(*)
SI_UNIT($,.STERADIAN.)
SOLID_ANGLE_UNIT()
);
#1073=(
NAMED_UNIT(*)
PLANE_ANGLE_UNIT()
SI_UNIT($,.RADIAN.)
);
#1074=(
LENGTH_UNIT()
NAMED_UNIT(*)
SI_UNIT($,.METRE.)
);
#1075=PRODUCT_DEFINITION_SHAPE('','',#1076);
#1076=PRODUCT_DEFINITION('','',#1078,#1077);
#1077=PRODUCT_DEFINITION_CONTEXT('',#1084,'design');
#1078=PRODUCT_DEFINITION_FORMATION_WITH_SPECIFIED_SOURCE('','',#1080,
 .NOT_KNOWN.);
#1079=PRODUCT_RELATED_PRODUCT_CATEGORY('','',(#1080));
#1080=PRODUCT('Part 1','Part 1','Part 1',(#1082));
#1081=PRODUCT_CATEGORY('','');
#1082=PRODUCT_CONTEXT('',#1084,'mechanical');
#1083=APPLICATION_PROTOCOL_DEFINITION('international standard',
'ap242_managed_model_based_3d_engineering',2020,#1084);
#1084=APPLICATION_CONTEXT('managed model based 3d engineering');
ENDSEC;
END-ISO-10303-21;
